<svg xmlns="http://www.w3.org/2000/svg" width="800" height="600"><rect width="800" height="600" fill="#fdf0f5"/><rect x="0" y="0" width="200" height="600" fill="#fce4ec" opacity="0.6"/><rect x="200" y="0" width="200" height="600" fill="#fce8f0" opacity="0.5"/><rect x="400" y="0" width="200" height="600" fill="#f8e1ec" opacity="0.6"/><rect x="600" y="0" width="200" height="600" fill="#fce4f4" opacity="0.5"/><rect x="60" y="100" width="80" height="360" rx="40" fill="#f48fb1" opacity="0.5"/><rect x="80" y="140" width="40" height="280" rx="20" fill="#f06292" opacity="0.4"/><rect x="260" y="120" width="80" height="340" rx="40" fill="#ce93d8" opacity="0.5"/><rect x="280" y="160" width="40" height="260" rx="20" fill="#ba68c8" opacity="0.4"/><rect x="460" y="110" width="80" height="350" rx="40" fill="#80cbc4" opacity="0.5"/><rect x="480" y="150" width="40" height="270" rx="20" fill="#4db6ac" opacity="0.4"/><rect x="660" y="130" width="80" height="330" rx="40" fill="#ffcc80" opacity="0.5"/><rect x="680" y="170" width="40" height="250" rx="20" fill="#ffa726" opacity="0.4"/><text x="100" y="500" font-family="serif" font-size="14" fill="#c2185b" text-anchor="middle" font-weight="bold">ARPEGE</text><text x="300" y="500" font-family="serif" font-size="14" fill="#7b1fa2" text-anchor="middle" font-weight="bold">ANAYI</text><text x="500" y="500" font-family="serif" font-size="14" fill="#00695c" text-anchor="middle" font-weight="bold">NBB</text><text x="700" y="500" font-family="serif" font-size="14" fill="#e65100" text-anchor="middle" font-weight="bold">UNTITLED</text><text x="400" y="555" font-family="sans-serif" font-size="20" fill="#880e4f" text-anchor="middle" font-weight="bold">奥莱四千金 · 爆款合集</text></svg>
